<svg xmlns="http://www.w3.org/2000/svg" viewBox="0 0 415 583.97">
    <defs>
        <style>.cls-1{fill:#ffffff;}</style>
    </defs>
    <g id="Layer_2" data-name="Layer 2">
        <g id="Layer_1-2" data-name="Layer 1">
            <path class="cls-1"
                  d="M209.62,548.06,378.84,378.84a123.53,123.53,0,0,0,14.53-17.54c.33-.48.67-.95,1-1.43.44-.66.85-1.34,1.27-2,.72-1.13,1.44-2.25,2.11-3.39l.21-.36a122.88,122.88,0,0,0-19.11-149L209.62,35.91A122.79,122.79,0,0,0,36,209.56L75.5,249.1a23.89,23.89,0,0,0,33.78-33.78L69.74,175.78A75,75,0,1,1,175.84,69.69l100.6,100.6a122.2,122.2,0,0,0-71.25,34.89L36,374.41A122.79,122.79,0,1,0,209.62,548.06ZM69.74,514.29a75,75,0,0,1,0-106.1L239,239a75,75,0,1,1,0,106,23.89,23.89,0,1,0-33.78,33.78,122.23,122.23,0,0,0,71.26,34.89L175.84,514.29a75,75,0,0,1-106.1,0Z"/>
        </g>
    </g>
</svg>
